<svg id="5VojY7M7D" viewBox="0 0 300 220.23450709018687" height="220.23450709018687" width="300" style="width: 300px; height: 220.235px; position: absolute; top: 50%; left: 50%; transform: translate(-50%, -50%) scale(0.653848); z-index: 0; cursor: pointer; overflow: visible;">
  <defs id="SvgjsDefs1037"></defs>
  <g id="SvgjsG1038" featurekey="rDwwlG-0" transform="matrix(1.8404909372329712,0,0,1.8404909372329712,57.97545932584701,-44.17178120861316)" fill="#b8c1ec" stroke="#121629">
    <g xmlns="http://www.w3.org/2000/svg">
      <path d="M82.6,53.3c0-9-7.3-16.3-16.3-16.3h-6c-0.6-7.3-6.6-13-14.1-13H31.5c-7.8,0-14.1,6.3-14.1,14.1c0,6,3.8,11.3,9.4,13.3   c-0.5,1.8-1,3.5-1.6,5l-0.5,1.3l1.4,0c0,0,0.1,0,0.1,0c2.1,0,4.5-1.8,6.7-3.9c0.3,8.7,7.5,15.7,16.2,15.7h13.3   c3,3,7.1,6.4,10.1,6.4c0,0,0.1,0,0.1,0l1.4,0l-0.5-1.3c-0.7-1.8-1.3-3.8-1.9-6C78.2,66.4,82.6,60.2,82.6,53.3z" fill="#b8c1ec" stroke="#121629"></path>
      <path d="M77.3,47.6c-0.2-0.5-0.8-0.7-1.3-0.5c-0.5,0.2-0.7,0.8-0.5,1.3c1.3,2.9,1.3,6.4,0.2,9.4c-0.3,0.8-0.5,1.2-0.6,1.5   c-0.3,0.2-0.4,0.5-0.4,0.8l0,0.9l0.8,0.2c0.1,0,0.2,0,0.2,0c0.8,0,1.1-0.8,1.8-2.7C78.9,55,78.8,51,77.3,47.6z" fill="#eebbc3"></path>
    </g>
  </g>
</svg>
